<?xml version="1.0" standalone="no"?>
<!DOCTYPE svg PUBLIC "-//W3C//DTD SVG 20010904//EN"
 "http://www.w3.org/TR/2001/REC-SVG-20010904/DTD/svg10.dtd">
<svg version="1.0" xmlns="http://www.w3.org/2000/svg"
 width="1941.000000pt" height="1277.000000pt" viewBox="0 0 1941.000000 1277.000000"
 preserveAspectRatio="xMidYMid meet">
<metadata>
Created by potrace 1.16, written by Peter Selinger 2001-2019
</metadata>
<g transform="translate(0.000000,1277.000000) scale(0.100000,-0.100000)"
fill="#000000" stroke="none">
<path d="M0 10980 l0 -1790 4815 0 4815 0 0 -885 0 -885 -4815 0 -4815 0 0
-50 0 -50 2365 0 2365 0 0 -885 0 -885 -2365 0 -2365 0 0 -45 0 -45 2365 0
2365 0 0 -885 0 -885 -2365 0 -2365 0 0 -50 0 -50 2365 0 2365 0 0 -885 0
-885 -2365 0 -2365 0 0 -45 0 -45 7260 0 7260 0 0 -865 0 -865 65 0 65 0 0
865 0 865 2380 0 2380 0 0 45 0 45 -2380 0 -2380 0 0 885 0 885 2380 0 2380 0
0 50 0 50 -2380 0 -2380 0 0 885 0 885 2380 0 2380 0 0 45 0 45 -2380 0 -2380
0 0 885 0 885 2380 0 2380 0 0 50 0 50 -2380 0 -2380 0 0 885 0 885 2380 0
2380 0 0 1790 0 1790 -9705 0 -9705 0 0 -1790z m17902 348 c121 -56 199 -164
260 -358 22 -71 23 -89 23 -360 0 -241 -3 -296 -18 -355 -70 -273 -267 -435
-483 -396 -114 21 -216 94 -273 195 -44 77 -89 215 -102 313 -18 140 -7 497
20 597 52 196 141 315 279 373 81 34 211 30 294 -9z m-3372 -3023 l0 -885
-2385 0 -2385 0 0 885 0 885 2385 0 2385 0 0 -885z m-4900 -1870 l0 -885
-2385 0 -2385 0 0 885 0 885 2385 0 2385 0 0 -885z m4890 0 l0 -885 -2385 0
-2385 0 0 885 0 885 2385 0 2385 0 0 -885z m-4890 -1860 l0 -885 -2385 0
-2385 0 0 885 0 885 2385 0 2385 0 0 -885z m4890 0 l0 -885 -2385 0 -2385 0 0
885 0 885 2385 0 2385 0 0 -885z m-4890 -1870 l0 -885 -2385 0 -2385 0 0 885
0 885 2385 0 2385 0 0 -885z m4890 0 l0 -885 -2385 0 -2385 0 0 885 0 885
2385 0 2385 0 0 -885z"/>
<path d="M17679 11247 c-115 -33 -195 -138 -245 -322 -16 -60 -19 -106 -19
-320 0 -234 2 -255 24 -330 62 -211 147 -302 291 -313 61 -4 76 -1 124 22 67
33 113 85 156 174 64 133 73 191 74 447 0 257 -9 311 -77 457 -43 94 -75 131
-140 162 -65 32 -128 40 -188 23z"/>
<path d="M11773 8342 c-40 -37 -95 -81 -122 -97 -62 -37 -65 -58 -10 -85 22
-12 75 -55 118 -96 58 -55 85 -74 106 -74 l27 0 -32 58 c-18 31 -41 68 -51 81
-11 13 -19 28 -19 32 0 5 200 9 445 9 l445 0 0 30 0 30 -450 0 -450 0 34 48
c102 144 80 178 -41 64z"/>
<path d="M7180 6869 c-110 -21 -183 -107 -182 -213 0 -66 21 -108 71 -144 l38
-28 -37 -15 c-80 -35 -125 -146 -101 -252 15 -70 57 -128 118 -164 44 -26 56
-28 153 -28 97 0 109 2 153 28 154 91 169 317 26 409 l-38 25 30 22 c48 36 69
79 69 143 0 71 -10 96 -55 147 -55 60 -151 88 -245 70z m146 -122 c29 -26 37
-42 40 -77 6 -54 -9 -86 -55 -117 -83 -56 -201 2 -201 99 0 78 52 127 133 128
40 0 53 -5 83 -33z m-20 -326 c100 -46 131 -169 62 -256 -46 -59 -142 -72
-213 -30 -50 29 -75 75 -75 140 0 123 114 197 226 146z"/>
<path d="M12071 6869 c-124 -24 -211 -136 -211 -273 0 -164 104 -280 250 -279
73 0 116 17 168 67 l34 31 -7 -50 c-23 -171 -85 -255 -190 -255 -58 0 -99 29
-121 85 -17 46 -18 47 -53 41 -20 -3 -42 -6 -48 -6 -31 0 -1 -95 45 -144 58
-61 174 -84 276 -54 60 18 137 99 165 172 48 128 49 395 2 501 -54 121 -181
188 -310 164z m152 -115 c45 -34 67 -84 67 -158 0 -75 -14 -111 -60 -149 -118
-100 -288 27 -251 187 13 57 42 101 85 128 39 24 120 21 159 -8z"/>
<path d="M7060 4996 c0 -2 -18 -99 -40 -216 -22 -117 -39 -214 -38 -215 2 -1
27 -5 56 -9 34 -4 52 -3 52 4 0 6 21 24 47 40 86 55 196 31 243 -53 32 -55 33
-143 2 -204 -68 -132 -252 -121 -293 18 l-12 39 -53 0 c-29 0 -55 -4 -58 -9
-11 -18 25 -108 58 -148 54 -63 120 -86 227 -81 75 4 94 8 136 34 54 33 107
105 124 167 15 56 7 184 -15 225 -28 53 -93 109 -148 128 -60 20 -148 15 -197
-11 -18 -9 -35 -15 -37 -12 -2 2 5 48 16 102 11 53 20 99 20 101 0 2 74 4 165
4 l165 0 0 50 0 50 -210 0 c-115 0 -210 -2 -210 -4z"/>
<path d="M12109 5010 c-125 -21 -199 -102 -235 -257 -24 -101 -15 -337 14
-413 48 -121 133 -180 261 -180 66 0 83 4 128 30 87 50 132 134 133 245 0 89
-13 134 -53 187 -47 62 -108 92 -182 93 -79 0 -104 -8 -159 -50 l-46 -35 0 38
c0 54 23 136 50 175 74 107 213 103 256 -8 16 -44 19 -46 47 -41 16 3 41 6 54
6 23 0 24 3 18 33 -19 86 -89 160 -164 172 -20 4 -45 8 -56 9 -11 2 -41 0 -66
-4z m119 -417 c49 -37 64 -67 69 -140 4 -57 1 -75 -19 -113 -73 -141 -245
-111 -288 50 -33 124 47 236 163 227 27 -3 60 -13 75 -24z"/>
<path d="M7183 3140 c-104 -15 -179 -82 -204 -184 -14 -57 -7 -66 57 -66 39 0
42 2 48 33 15 78 75 127 155 127 92 0 151 -54 151 -138 0 -81 -45 -141 -216
-287 -156 -134 -222 -223 -224 -302 l0 -23 281 0 280 0 -3 53 -3 52 -200 5
-199 5 39 40 c22 22 92 85 156 141 65 57 131 125 152 156 60 91 70 184 27 268
-47 92 -163 139 -297 120z"/>
<path d="M12090 3143 c-116 -20 -189 -86 -215 -195 -6 -25 -5 -27 47 -35 l53
-8 20 50 c62 153 283 113 262 -49 -9 -64 -82 -116 -164 -116 -19 0 -23 -6 -23
-29 0 -16 -3 -36 -6 -44 -5 -13 5 -15 59 -15 82 2 123 -21 155 -82 28 -56 28
-96 -1 -151 -29 -54 -85 -89 -145 -89 -75 0 -125 40 -152 123 l-12 39 -52 -7
c-28 -4 -53 -9 -54 -10 -11 -10 33 -117 62 -151 88 -103 274 -117 388 -29 65
49 98 119 98 207 0 49 -6 80 -20 108 -20 39 -82 90 -110 90 -8 0 2 14 23 31
94 77 90 226 -9 307 -46 39 -145 65 -204 55z"/>
<path d="M4754 8750 c-238 -36 -369 -271 -310 -551 28 -131 97 -228 194 -276
49 -24 72 -28 162 -31 88 -3 114 0 161 17 96 36 165 111 203 219 l15 42 -37 9
c-76 21 -82 19 -97 -22 -24 -70 -61 -113 -120 -142 -49 -24 -64 -27 -125 -23
-162 12 -243 122 -244 333 -1 210 93 325 267 325 104 0 176 -47 209 -136 10
-28 16 -34 33 -30 11 3 37 9 58 12 20 4 37 12 37 18 0 31 -57 120 -101 160
-74 66 -187 95 -305 76z"/>
<path d="M2070 6810 l0 -50 200 0 c110 0 200 -2 200 -5 0 -3 -20 -32 -44 -65
-119 -162 -213 -401 -232 -591 l-7 -69 56 0 56 0 6 38 c38 258 120 457 265
647 41 53 50 72 50 105 l0 40 -275 0 -275 0 0 -50z"/>
<path d="M2221 4740 c-186 -264 -191 -272 -191 -320 l0 -50 180 0 180 0 0
-100 0 -100 55 0 55 0 0 100 0 100 60 0 60 0 0 50 0 50 -60 0 -60 0 0 270 0
270 -44 0 -44 0 -191 -270z m169 -95 l0 -175 -121 0 c-66 0 -119 4 -117 9 4
10 232 340 236 341 1 0 2 -79 2 -175z"/>
<path d="M2352 3096 c-27 -35 -71 -74 -127 -111 l-85 -57 0 -50 c0 -46 1 -49
23 -43 28 9 154 82 162 95 21 34 25 -15 25 -310 l0 -320 55 0 55 0 -2 423 -3
422 -31 3 c-27 3 -36 -4 -72 -52z"/>
<path d="M7185 1280 c-114 -18 -189 -110 -216 -266 -7 -40 -9 -120 -6 -203 6
-164 28 -241 89 -307 54 -58 107 -77 202 -72 64 3 81 8 118 34 54 38 101 115
119 196 9 38 14 120 14 208 0 125 -4 154 -24 213 -51 150 -155 219 -296 197z
m137 -126 c43 -41 57 -80 69 -198 8 -75 8 -131 0 -205 -16 -152 -59 -219 -145
-228 -116 -13 -176 98 -176 327 0 169 33 283 92 320 48 30 118 23 160 -16z"/>
</g>
</svg>
